<svg width="546" height="434" viewBox="0 0 546 434" fill="none" xmlns="http://www.w3.org/2000/svg">
<path fill-rule="evenodd" clip-rule="evenodd" d="M390 170.553H438V109.918H390V170.553Z" fill="#02ECF1"/>
<path fill-rule="evenodd" clip-rule="evenodd" d="M400.025 116.97L400.796 116.649C401.078 116.536 401.326 116.444 401.552 116.365C402.132 116.814 402.038 116.877 402.191 117.404L395.873 120.23V120.246L398.599 121.462C399.959 122.074 401.152 122.616 402.183 123.057C402.03 123.605 402.155 123.648 401.544 124.118C401.203 124.004 400.897 123.877 400.628 123.755C398.825 122.951 396.498 121.925 393.625 120.63V120.21C393.625 120.16 393.72 120.095 393.924 120.009C393.844 120.038 393.771 120.059 393.699 120.088V119.996C393.699 119.91 393.713 119.818 393.822 119.754L400.025 116.97Z" fill="white"/>
<path fill-rule="evenodd" clip-rule="evenodd" d="M400.025 157.278L400.796 156.957C401.078 156.844 401.326 156.752 401.552 156.673C402.132 157.122 402.038 157.185 402.191 157.712L395.873 160.538V160.554L398.599 161.77C399.959 162.382 401.152 162.924 402.183 163.365C402.03 163.913 402.155 163.956 401.544 164.426C401.203 164.311 400.897 164.184 400.628 164.062C398.825 163.258 396.498 162.233 393.625 160.938V160.517C393.625 160.468 393.72 160.403 393.924 160.317C393.844 160.346 393.771 160.368 393.699 160.396V160.304C393.699 160.218 393.713 160.125 393.822 160.061L400.025 157.278Z" fill="white"/>
<path fill-rule="evenodd" clip-rule="evenodd" d="M408.723 121.256H433.293V118.723H408.723V121.256Z" fill="white"/>
<path fill-rule="evenodd" clip-rule="evenodd" d="M414.21 130.119H433.293V127.587H414.21V130.119Z" fill="white"/>
<path fill-rule="evenodd" clip-rule="evenodd" d="M422.832 137.717H433.293V135.185H422.832V137.717Z" fill="white"/>
<path fill-rule="evenodd" clip-rule="evenodd" d="M408.723 161.565H433.293V159.032H408.723V161.565Z" fill="white"/>
<path fill-rule="evenodd" clip-rule="evenodd" d="M414.21 152.701H433.293V150.169H414.21V152.701Z" fill="white"/>
<path fill-rule="evenodd" clip-rule="evenodd" d="M422.832 145.103H433.293V142.571H422.832V145.103Z" fill="white"/>
<path fill-rule="evenodd" clip-rule="evenodd" d="M405.597 156.136L403.038 165.159L404.876 165.304L407.434 156.281L405.597 156.136Z" fill="white"/>
<path fill-rule="evenodd" clip-rule="evenodd" d="M422.173 177.057L423.138 185.083L428.912 199.76L423.632 201.35L419.571 186.042L419.04 177.411L422.173 177.057Z" fill="#250F8A"/>
<path fill-rule="evenodd" clip-rule="evenodd" d="M434.512 215.868L431.933 241.411L432.792 263.865H423.906L423.428 262.194L429.519 261.398L426.27 241.515L423.339 216.79L434.512 215.868Z" fill="white"/>
<path fill-rule="evenodd" clip-rule="evenodd" d="M437.447 215.582L439.468 237.34L453.072 255.036L451.448 263.386H447.387L449.823 261.597L450.23 256.228L437.235 241.913L425.458 216.266L437.447 215.582Z" fill="#E7EEFA"/>
<path fill-rule="evenodd" clip-rule="evenodd" d="M413.013 180.479L415.85 181.399C417.004 184.671 418.926 187.632 421.463 190.045L426.773 195.097L433.31 199.42L438.166 217.06L422.974 218.464L422.472 199.027L416.832 192.122C414.512 189.284 412.943 185.93 412.263 182.356L413.013 180.479Z" fill="#250F8A"/>
<path fill-rule="evenodd" clip-rule="evenodd" d="M416.147 182.367L412.411 183.665L409.999 171.272L410.724 170.22L416.147 182.367Z" fill="#FFD0D4"/>
<path fill-rule="evenodd" clip-rule="evenodd" d="M416.991 182.132L412.29 184.374C412.29 184.374 411.326 183.548 411.445 183.076C411.566 182.604 411.807 182.25 412.169 182.014C412.531 181.777 416.148 180.479 416.148 180.479L416.991 182.132Z" fill="#472BC7"/>
<path fill-rule="evenodd" clip-rule="evenodd" d="M419.04 177.411L418.8 170.801H421.451L422.173 177.057L419.04 177.411Z" fill="#FFD0D4"/>
<path fill-rule="evenodd" clip-rule="evenodd" d="M412.982 170.673C412.946 170.649 411.283 169.754 411.248 169.638C411.213 169.521 410.037 166.743 410.037 166.743L408.345 166.977L408.827 171.541L411.158 172.091L412.982 170.673Z" fill="#FFD0D4"/>
<path fill-rule="evenodd" clip-rule="evenodd" d="M437.366 191.672C436.233 194.214 432.564 196.829 429.967 195.719C427.371 194.61 426.833 190.197 427.965 187.655C429.098 185.113 432.12 183.951 434.716 185.061C437.312 186.17 438.499 189.13 437.366 191.672Z" fill="#FFD0D4"/>
<path fill-rule="evenodd" clip-rule="evenodd" d="M429.626 186.104C429.176 185.792 428.71 185.503 428.228 185.239C427.881 185.051 427.337 184.935 427.183 185.292C427.108 185.47 427.187 185.67 427.266 185.845C427.528 186.432 427.817 187.05 428.354 187.418C428.806 187.727 429.409 187.815 429.934 187.647C430.408 187.496 430.871 187.143 430.92 186.665C430.444 186.574 430.024 186.381 429.626 186.104Z" fill="#FFD0D4"/>
<path fill-rule="evenodd" clip-rule="evenodd" d="M430.544 195.898C433.079 196.448 436.315 194.031 437.366 191.672C438.498 189.129 437.313 186.169 434.717 185.061C434.56 184.993 434.398 184.961 434.239 184.911C433.942 185.219 433.702 185.585 433.595 185.933C433.177 187.291 433.494 188.895 434.371 190.024C434.371 190.024 431.434 195.444 430.544 195.898Z" fill="black"/>
<path fill-rule="evenodd" clip-rule="evenodd" d="M434.713 190.837C435.091 191.03 435.382 191.363 435.563 191.739C436.154 192.95 434.753 194.139 433.558 193.981C433.172 193.931 432.806 193.779 432.469 193.587C432.179 193.42 431.895 193.205 431.765 192.899C431.639 192.604 431.68 192.259 431.816 191.969C431.952 191.679 432.178 191.437 432.421 191.225C432.977 190.74 434.03 190.489 434.713 190.837Z" fill="#FFD0D4"/>
<path fill-rule="evenodd" clip-rule="evenodd" d="M120.964 328.65H378.218V63.824H120.964V328.65Z" fill="#FFDA4F"/>
<path fill-rule="evenodd" clip-rule="evenodd" d="M114.367 328.65H371.621V63.824H114.367V328.65Z" fill="white"/>
<path fill-rule="evenodd" clip-rule="evenodd" d="M114.367 84.4508H371.621V63.824H114.367V84.4508Z" fill="#FFCA00"/>
<path fill-rule="evenodd" clip-rule="evenodd" d="M193.079 266.124C192.746 266.036 192.412 265.992 192.081 265.976C192.009 265.974 191.938 265.983 191.867 265.983C191.599 265.983 191.333 266.001 191.073 266.047C191.022 266.055 190.974 266.07 190.922 266.081C190.635 266.141 190.358 266.226 190.089 266.338C190.071 266.346 190.053 266.353 190.034 266.362C188.812 266.889 187.826 267.91 187.444 269.27C186.777 271.662 187.832 275.498 190.274 276.153C191.408 276.458 192.641 276.017 193.705 275.224C193.705 275.224 193.706 275.221 193.707 275.221C194.111 274.92 194.488 274.57 194.828 274.187C194.84 274.172 194.852 274.157 194.866 274.143C195.012 273.974 195.152 273.799 195.284 273.62C195.303 273.594 195.324 273.567 195.343 273.539C195.48 273.348 195.607 273.153 195.721 272.955C195.737 272.929 195.748 272.904 195.764 272.877C195.858 272.71 195.942 272.541 196.017 272.371C196.04 272.32 196.062 272.27 196.084 272.22C196.165 272.026 196.236 271.832 196.29 271.641C196.457 271.044 196.493 270.44 196.414 269.863C196.177 268.128 194.911 266.616 193.079 266.124Z" fill="#E5FDFD"/>
<path fill-rule="evenodd" clip-rule="evenodd" d="M182.396 251.024H203.056V251.026C203.056 251.898 203.606 252.642 204.384 252.951L195.622 277.368L186.774 276.675L181.297 252.213C181.81 251.978 182.206 251.55 182.396 251.024ZM178.809 251.694L178.632 251.719L181.818 278.409L184.296 303.365L186.4 328.65H190.087L191.061 303.083L193.475 302.983L195.027 328.65H199.266L200.932 302.672L200.578 279.449L207.304 252.067L207.031 252.028C207.199 251.73 207.304 251.393 207.304 251.026V251.024H222.984V206.011H163.448V251.024H178.408C178.498 251.274 178.634 251.499 178.809 251.694Z" fill="#E5FDFD"/>
<path fill-rule="evenodd" clip-rule="evenodd" d="M289.127 250.003L292.107 267.564H285.79L288.77 250.003H289.127ZM317.236 250.003L314.256 267.564H293.342L290.362 250.003H317.236ZM318.829 250.003L321.809 267.564H315.491L318.471 250.003H318.829ZM323.971 280.289H313.33L315.289 268.757H322.012L323.971 280.289ZM326.129 293.013H311.172L313.128 281.482H324.173L326.129 293.013ZM328.288 305.736H309.012L310.969 294.205H326.332L328.288 305.736ZM330.449 318.461H306.852L308.808 306.929H328.492L330.449 318.461ZM305.616 318.461H301.982L300.024 306.929H307.574L305.616 318.461ZM277.15 318.461L279.107 306.929H298.79L300.748 318.461H277.15ZM281.267 294.205H296.63L298.588 305.736H279.309L281.267 294.205ZM283.427 281.482H294.47L296.427 293.013H281.47L283.427 281.482ZM295.502 280.289L293.544 268.757H314.054L312.096 280.289H295.502ZM309.734 294.205L307.777 305.736H299.822L297.866 294.205H309.734ZM297.662 293.013L295.704 281.482H311.893L309.936 293.013H297.662ZM285.587 268.757H292.309L294.268 280.289H283.629L285.587 268.757ZM274.185 328.65H275.42L276.947 319.654H300.95L302.477 328.65H303.712L302.186 319.654H305.414L303.886 328.65H305.122L306.649 319.654H330.652L332.179 328.65H333.413L320.065 250.003H322.634V246.424H286.085V250.003H287.535L274.185 328.65Z" fill="black"/>
<path fill-rule="evenodd" clip-rule="evenodd" d="M461.814 166.131H510.121V46.0957H461.814V166.131Z" fill="#FFCA00"/>
<path fill-rule="evenodd" clip-rule="evenodd" d="M473.187 52.1368L473.959 51.8159C474.242 51.7026 474.489 51.6107 474.715 51.532C475.296 51.9805 475.201 52.0437 475.354 52.571L469.036 55.397V55.4126L471.762 56.6293C473.122 57.2413 474.315 57.7829 475.347 58.2243C475.193 58.7718 475.318 58.8148 474.707 59.2848C474.366 59.1703 474.06 59.0426 473.791 58.9221C471.988 58.1169 469.661 57.0922 466.789 55.7967V55.3768C466.789 55.3267 466.884 55.2622 467.087 55.1776C467.008 55.205 466.934 55.2265 466.863 55.2551V55.1632C466.863 55.0773 466.876 54.9843 466.986 54.9199L473.187 52.1368Z" fill="white"/>
<path fill-rule="evenodd" clip-rule="evenodd" d="M473.187 92.4449L473.959 92.124C474.242 92.0107 474.489 91.9176 474.715 91.8401C475.296 92.2886 475.201 92.3519 475.354 92.8791L469.036 95.7052V95.7195L471.762 96.9374C473.122 97.5494 474.315 98.091 475.347 98.5324C475.193 99.0799 475.318 99.1229 474.707 99.5929C474.366 99.4784 474.06 99.3507 473.791 99.229C471.988 98.425 469.661 97.4003 466.789 96.1048V95.6837C466.789 95.6348 466.884 95.5704 467.087 95.4845C467.008 95.5131 466.934 95.5346 466.863 95.5632V95.4713C466.863 95.3855 466.876 95.2924 466.986 95.228L473.187 92.4449Z" fill="white"/>
<path fill-rule="evenodd" clip-rule="evenodd" d="M481.887 56.423H506.457V53.8904H481.887V56.423Z" fill="white"/>
<path fill-rule="evenodd" clip-rule="evenodd" d="M487.374 65.2865H506.457V62.7539H487.374V65.2865Z" fill="white"/>
<path fill-rule="evenodd" clip-rule="evenodd" d="M495.995 72.8844H506.457V70.3518H495.995V72.8844Z" fill="white"/>
<path fill-rule="evenodd" clip-rule="evenodd" d="M481.887 96.7318H506.457V94.1992H481.887V96.7318Z" fill="white"/>
<path fill-rule="evenodd" clip-rule="evenodd" d="M487.374 87.8673H506.457V85.3347H487.374V87.8673Z" fill="white"/>
<path fill-rule="evenodd" clip-rule="evenodd" d="M495.995 80.2709H506.457V77.7383H495.995V80.2709Z" fill="white"/>
<path fill-rule="evenodd" clip-rule="evenodd" d="M478.76 91.3032L476.201 100.326L478.04 100.471L480.598 91.4476L478.76 91.3032Z" fill="white"/>
<path fill-rule="evenodd" clip-rule="evenodd" d="M473.187 106.91L473.959 106.59C474.242 106.476 474.489 106.384 474.715 106.306C475.296 106.754 475.201 106.817 475.354 107.345L469.036 110.171V110.186L471.762 111.403C473.122 112.015 474.315 112.557 475.347 112.998C475.193 113.546 475.318 113.588 474.707 114.058C474.366 113.944 474.06 113.816 473.791 113.696C471.988 112.891 469.661 111.866 466.789 110.57V110.149C466.789 110.1 466.884 110.036 467.087 109.95C467.008 109.979 466.934 110 466.863 110.029V109.937C466.863 109.851 466.876 109.758 466.986 109.694L473.187 106.91Z" fill="white"/>
<path fill-rule="evenodd" clip-rule="evenodd" d="M473.187 147.219L473.959 146.898C474.242 146.784 474.489 146.691 474.715 146.614C475.296 147.062 475.201 147.126 475.354 147.653L469.036 150.479V150.493L471.762 151.711C473.122 152.323 474.315 152.865 475.347 153.306C475.193 153.854 475.318 153.897 474.707 154.367C474.366 154.252 474.06 154.124 473.791 154.003C471.988 153.199 469.661 152.174 466.789 150.877V150.457C466.789 150.408 466.884 150.344 467.087 150.258C467.008 150.287 466.934 150.308 466.863 150.337V150.245C466.863 150.159 466.876 150.066 466.986 150.002L473.187 147.219Z" fill="white"/>
<path fill-rule="evenodd" clip-rule="evenodd" d="M481.887 111.197H506.457V108.665H481.887V111.197Z" fill="white"/>
<path fill-rule="evenodd" clip-rule="evenodd" d="M487.374 120.061H506.457V117.528H487.374V120.061Z" fill="white"/>
<path fill-rule="evenodd" clip-rule="evenodd" d="M495.995 127.657H506.457V125.125H495.995V127.657Z" fill="white"/>
<path fill-rule="evenodd" clip-rule="evenodd" d="M481.887 151.505H506.457V148.972H481.887V151.505Z" fill="white"/>
<path fill-rule="evenodd" clip-rule="evenodd" d="M487.374 142.641H506.457V140.109H487.374V142.641Z" fill="white"/>
<path fill-rule="evenodd" clip-rule="evenodd" d="M495.995 135.044H506.457V132.511H495.995V135.044Z" fill="white"/>
<path fill-rule="evenodd" clip-rule="evenodd" d="M478.76 146.076L476.201 155.099L478.04 155.245L480.598 146.221L478.76 146.076Z" fill="white"/>
<path fill-rule="evenodd" clip-rule="evenodd" d="M145.172 262.953H204.709V217.941H145.172V262.953Z" fill="#02ECF1"/>
<path fill-rule="evenodd" clip-rule="evenodd" d="M305.405 343.305L289.229 248.004L290.43 247.808L306.606 343.109L305.405 343.305Z" fill="black"/>
<path fill-rule="evenodd" clip-rule="evenodd" d="M275.703 343.305L259.526 248.004L260.727 247.808L276.905 343.109L275.703 343.305Z" fill="black"/>
<path fill-rule="evenodd" clip-rule="evenodd" d="M263.573 268.757H293.54V267.564H263.573V268.757Z" fill="black"/>
<path fill-rule="evenodd" clip-rule="evenodd" d="M265.696 281.482H295.664V280.289H265.696V281.482Z" fill="black"/>
<path fill-rule="evenodd" clip-rule="evenodd" d="M267.818 294.206H297.785V293.013H267.818V294.206Z" fill="black"/>
<path fill-rule="evenodd" clip-rule="evenodd" d="M269.939 306.929H299.906V305.736H269.939V306.929Z" fill="black"/>
<path fill-rule="evenodd" clip-rule="evenodd" d="M272.06 319.654H302.027V318.461H272.06V319.654Z" fill="black"/>
<path fill-rule="evenodd" clip-rule="evenodd" d="M274.181 332.378H304.149V331.185H274.181V332.378Z" fill="black"/>
<path fill-rule="evenodd" clip-rule="evenodd" d="M243.671 343.305L242.47 343.109L258.646 247.808L259.848 248.004L243.671 343.305Z" fill="#525252"/>
<path fill-rule="evenodd" clip-rule="evenodd" d="M273.373 343.305L272.172 343.109L288.348 247.808L289.549 248.004L273.373 343.305Z" fill="#525252"/>
<path fill-rule="evenodd" clip-rule="evenodd" d="M255.534 268.757H285.501V267.564H255.534V268.757Z" fill="#525252"/>
<path fill-rule="evenodd" clip-rule="evenodd" d="M253.413 281.482H283.38V280.289H253.413V281.482Z" fill="#525252"/>
<path fill-rule="evenodd" clip-rule="evenodd" d="M251.291 294.206H281.258V293.013H251.291V294.206Z" fill="#525252"/>
<path fill-rule="evenodd" clip-rule="evenodd" d="M249.17 306.929H279.137V305.736H249.17V306.929Z" fill="#525252"/>
<path fill-rule="evenodd" clip-rule="evenodd" d="M247.048 319.654H277.015V318.461H247.048V319.654Z" fill="#525252"/>
<path fill-rule="evenodd" clip-rule="evenodd" d="M244.927 332.378H274.894V331.185H244.927V332.378Z" fill="#525252"/>
<path fill-rule="evenodd" clip-rule="evenodd" d="M256.824 250.003H293.372V246.424H256.824V250.003Z" fill="black"/>
<path fill-rule="evenodd" clip-rule="evenodd" d="M389.992 390.023L387.514 365.067L384.328 338.378L386.806 338.032L392.47 363.334L401.319 364.027L410.522 338.378L413 338.725L406.274 366.106L406.628 389.33L389.992 390.023Z" fill="#FFCA00"/>
<path fill-rule="evenodd" clip-rule="evenodd" d="M393.141 355.929C392.472 358.32 393.527 362.158 395.97 362.813C398.412 363.467 401.318 360.692 401.987 358.3C402.656 355.908 401.218 353.438 398.775 352.783C396.332 352.128 393.81 353.537 393.141 355.929Z" fill="#FFD0D4"/>
<path fill-rule="evenodd" clip-rule="evenodd" d="M396.407 354.548C395.907 354.414 395.208 354.077 394.941 353.618C394.915 353.575 394.906 353.533 394.89 353.491C395.975 352.724 397.382 352.41 398.774 352.784C401.218 353.437 402.655 355.909 401.986 358.301C401.509 360.008 399.89 361.905 398.115 362.616C398.148 362.133 398.267 361.655 398.392 361.187C398.899 359.295 399.463 357.419 400.083 355.562C398.832 355.317 397.602 354.977 396.407 354.548Z" fill="black"/>
<path fill-rule="evenodd" clip-rule="evenodd" d="M399.261 358.205C399.591 357.969 400.045 357.86 400.422 358.019C400.508 358.056 400.591 358.106 400.658 358.173C400.841 358.35 400.894 358.622 400.871 358.874C400.809 359.568 400.227 360.15 399.547 360.357C399.355 360.415 399.15 360.447 398.95 360.418C398.75 360.388 398.555 360.291 398.44 360.129C398.013 359.531 398.784 358.544 399.261 358.205Z" fill="#FFD0D4"/>
<path fill-rule="evenodd" clip-rule="evenodd" d="M406.629 389.33L404.171 427.608H401.468L399.172 389.642L396.756 389.742L395.281 428.544L393.194 428.496L389.992 390.023L389.521 385.283L406.569 385.501L406.629 389.33Z" fill="white"/>
<path fill-rule="evenodd" clip-rule="evenodd" d="M404.172 427.607L410.118 428.249L409.903 429.152H401.196L401.467 427.607H404.172Z" fill="#250F8A"/>
<path fill-rule="evenodd" clip-rule="evenodd" d="M395.28 428.544V429.631L387.112 429.934V428.933L393.193 428.496L395.28 428.544Z" fill="#250F8A"/>
<path fill-rule="evenodd" clip-rule="evenodd" d="M388.221 336.992C388.221 338.141 387.271 339.071 386.098 339.071C384.925 339.071 383.975 338.141 383.975 336.992C383.975 335.843 384.925 334.913 386.098 334.913C387.271 334.913 388.221 335.843 388.221 336.992Z" fill="#FFD0D4"/>
<path fill-rule="evenodd" clip-rule="evenodd" d="M412.999 337.685C412.999 338.834 412.049 339.764 410.876 339.764C409.703 339.764 408.753 338.834 408.753 337.685C408.753 336.536 409.703 335.606 410.876 335.606C412.049 335.606 412.999 336.536 412.999 337.685Z" fill="#FFD0D4"/>
<path fill-rule="evenodd" clip-rule="evenodd" d="M166.021 315.295L163.543 290.339L160.357 263.65L162.835 263.302L168.499 288.606L177.347 289.299L186.551 263.65L189.029 263.997L182.303 291.378L182.657 314.602L166.021 315.295Z" fill="#2D109F"/>
<path fill-rule="evenodd" clip-rule="evenodd" d="M164.25 262.263C164.25 263.412 163.3 264.342 162.127 264.342C160.954 264.342 160.003 263.412 160.003 262.263C160.003 261.114 160.954 260.184 162.127 260.184C163.3 260.184 164.25 261.114 164.25 262.263Z" fill="#FFD0D4"/>
<path fill-rule="evenodd" clip-rule="evenodd" d="M189.028 262.956C189.028 264.105 188.078 265.036 186.905 265.036C185.732 265.036 184.781 264.105 184.781 262.956C184.781 261.808 185.732 260.877 186.905 260.877C188.078 260.877 189.028 261.808 189.028 262.956Z" fill="#FFD0D4"/>
<path fill-rule="evenodd" clip-rule="evenodd" d="M177.009 285.55C177.028 285.523 177.049 285.496 177.067 285.47C177.205 285.278 177.332 285.082 177.446 284.884C177.462 284.859 177.473 284.833 177.489 284.808C177.583 284.639 177.667 284.471 177.742 284.302C177.765 284.25 177.787 284.2 177.809 284.15C177.89 283.956 177.961 283.763 178.015 283.57C178.182 282.973 178.218 282.37 178.139 281.792C178.087 281.412 177.97 281.052 177.825 280.704C177.531 279.998 177.071 279.363 176.456 278.88C176.316 278.77 176.155 278.682 176 278.588C175.889 278.52 175.788 278.44 175.67 278.381C175.398 278.246 175.108 278.136 174.804 278.054H174.801C174.469 277.965 174.136 277.921 173.806 277.906C173.734 277.903 173.663 277.914 173.59 277.914C173.322 277.914 173.058 277.93 172.798 277.976C172.747 277.985 172.697 278 172.647 278.011C172.36 278.07 172.083 278.156 171.814 278.268L171.759 278.292C170.537 278.817 169.549 279.84 169.169 281.2C168.502 283.591 169.557 287.428 171.999 288.083C173.133 288.387 174.365 287.947 175.429 287.154C175.43 287.153 175.432 287.152 175.434 287.15C175.836 286.85 176.213 286.499 176.552 286.117C176.565 286.102 176.577 286.086 176.591 286.071C176.738 285.903 176.877 285.727 177.009 285.55Z" fill="black"/>
<path fill-rule="evenodd" clip-rule="evenodd" d="M182.657 314.602L180.201 352.879H177.496L175.2 314.912L172.785 315.013L171.309 353.815L169.222 353.768L166.02 315.295L165.55 310.554L182.598 310.772L182.657 314.602Z" fill="#FFCA00"/>
<path fill-rule="evenodd" clip-rule="evenodd" d="M180.201 352.879L186.146 353.52L185.932 354.422H177.224L177.497 352.879H180.201Z" fill="#2D109F"/>
<path fill-rule="evenodd" clip-rule="evenodd" d="M171.308 353.815V354.902L163.141 355.205V354.204L169.223 353.768L171.308 353.815Z" fill="#2D109F"/>
<path fill-rule="evenodd" clip-rule="evenodd" d="M347.321 337.147H449.653V277.501H347.321V337.147Z" fill="white"/>
<path fill-rule="evenodd" clip-rule="evenodd" d="M398.529 329.322H444.181V285.037H398.529V329.322Z" fill="#250F8A"/>
<path fill-rule="evenodd" clip-rule="evenodd" d="M353.115 289.216H392.983V285.456H353.115V289.216Z" fill="#250F8A"/>
<path fill-rule="evenodd" clip-rule="evenodd" d="M353.115 298.406H392.983V294.647H353.115V298.406Z" fill="#250F8A"/>
<path fill-rule="evenodd" clip-rule="evenodd" d="M353.115 307.597H392.983V303.837H353.115V307.597Z" fill="#250F8A"/>
<path fill-rule="evenodd" clip-rule="evenodd" d="M353.115 316.789H392.983V313.029H353.115V316.789Z" fill="#250F8A"/>
<path fill-rule="evenodd" clip-rule="evenodd" d="M353.115 325.979H392.983V322.22H353.115V325.979Z" fill="#250F8A"/>
<path fill-rule="evenodd" clip-rule="evenodd" d="M273.75 170.49C274.204 170.843 274.689 171.194 275.245 171.329C275.242 171.477 275.222 171.62 275.233 171.77C275.446 174.536 278.027 178.191 280.851 177.983C281.055 177.969 281.252 177.929 281.447 177.877V177.876C282.212 177.671 282.9 177.19 283.483 176.549C283.501 176.529 283.52 176.512 283.538 176.492C283.63 176.387 283.719 176.277 283.806 176.165C283.834 176.128 283.864 176.092 283.891 176.055C283.97 175.95 284.043 175.842 284.116 175.732C284.15 175.682 284.183 175.632 284.216 175.581C284.282 175.476 284.344 175.369 284.405 175.262C284.44 175.2 284.476 175.138 284.508 175.076C284.563 174.972 284.616 174.867 284.666 174.761C284.7 174.689 284.734 174.617 284.767 174.544C284.811 174.444 284.853 174.342 284.895 174.241C284.928 174.159 284.958 174.076 284.988 173.994C285.024 173.897 285.058 173.801 285.09 173.703C285.119 173.612 285.146 173.523 285.171 173.432C285.197 173.34 285.224 173.25 285.248 173.157C285.272 173.059 285.293 172.962 285.313 172.864C285.331 172.778 285.35 172.694 285.366 172.608C285.384 172.503 285.398 172.399 285.411 172.294C285.422 172.218 285.434 172.14 285.443 172.064C285.454 171.947 285.459 171.832 285.465 171.719C285.467 171.657 285.473 171.593 285.475 171.532C285.476 171.461 285.472 171.396 285.47 171.328C285.847 171.49 286.262 171.584 286.699 171.584C288.381 171.584 289.745 170.249 289.745 168.602C289.745 166.955 288.381 165.62 286.699 165.62C285.338 165.62 284.199 166.5 283.809 167.707C283.768 167.669 283.734 167.624 283.692 167.588C283.443 167.378 283.173 167.192 282.888 167.032C282.316 166.712 281.678 166.498 281.001 166.413C280.664 166.37 280.316 166.36 279.964 166.387C277.918 166.537 276.257 167.85 275.569 169.609C275.151 169.566 274.733 169.524 274.312 169.515C273.917 169.506 273.38 169.653 273.414 170.039C273.431 170.23 273.598 170.371 273.75 170.49Z" fill="#E5FDFD"/>
<path fill-rule="evenodd" clip-rule="evenodd" d="M257.926 168.376L260.412 170.859C259.495 170.206 258.636 169.573 257.868 168.988L257.926 168.376ZM325.612 210.448L309.275 211.175L298.05 193.251L298.287 193.098L285.573 179.726L282.793 179.432L265.838 171.212L259.732 165.774L257.996 167.635L261.526 130.234L210.705 125.634C210.901 125.183 211.009 124.687 211.009 124.165C211.009 122.296 209.611 120.757 207.783 120.47V45.0352H206.565V120.47C204.738 120.757 203.339 122.296 203.339 124.165C203.339 124.444 203.374 124.714 203.434 124.976L159.521 121.003L154.662 172.476L256.667 181.707L257.468 173.238C260.874 176.344 265.279 179.86 267.522 180.815L275.805 184.337L285.342 200.97L285.278 201.01L285.43 201.128L285.524 201.291L285.591 201.249L285.898 201.484L288.575 224.062L291.823 243.943L285.731 244.739L286.21 246.412H295.096L294.236 223.955L295.744 209.018L306.801 217.477L324.942 213.405L326.699 217.91L328.12 217.313L325.612 210.448Z" fill="#E5FDFD"/>
<path fill-rule="evenodd" clip-rule="evenodd" d="M130.295 172.476L232.3 181.707L237.16 130.234L135.153 121.003L130.295 172.476Z" fill="#02ECF1"/>
<path fill-rule="evenodd" clip-rule="evenodd" d="M235.366 165.774L241.471 171.213L261.596 180.968L252.743 183.173L239.421 174.227L233.238 168.055L235.366 165.774Z" fill="#FF7E6E"/>
<path fill-rule="evenodd" clip-rule="evenodd" d="M261.094 171.019C261.306 173.784 259.31 177.777 256.485 177.983C253.661 178.192 251.078 174.535 250.866 171.77C250.654 169.005 252.771 166.594 255.596 166.387C258.42 166.179 260.882 168.254 261.094 171.019Z" fill="#FFD0D4"/>
<path fill-rule="evenodd" clip-rule="evenodd" d="M231.062 164.763C231.039 164.765 230.19 164.335 230.19 164.335L229.369 165.653L225.2 163.363L223.816 164.872L229.696 169.221L230.978 167.646L230.31 166.756L230.583 165.782L231.062 164.763Z" fill="#FFD0D4"/>
<path fill-rule="evenodd" clip-rule="evenodd" d="M272.448 198.413L269.868 223.956L270.728 246.412H261.842L261.365 244.738L267.456 243.944L264.207 224.061L261.277 199.335L272.448 198.413Z" fill="#250F8A"/>
<path fill-rule="evenodd" clip-rule="evenodd" d="M231.058 167.001C233.641 169.365 242.865 175.887 246.259 176.859L253.364 178.895L261.207 179.726L273.919 193.098L261.158 201.291L251.437 184.337L243.156 180.815C239.751 179.367 231.357 172.012 229.049 169.165L231.058 167.001Z" fill="#FA7564"/>
<path fill-rule="evenodd" clip-rule="evenodd" d="M251.595 169.639C251.048 169.568 250.497 169.527 249.945 169.515C249.549 169.506 249.012 169.653 249.047 170.04C249.064 170.23 249.23 170.371 249.384 170.491C249.896 170.89 250.446 171.304 251.096 171.383C251.645 171.45 252.22 171.25 252.603 170.862C252.949 170.512 253.192 169.987 253.005 169.542C252.541 169.679 252.078 169.702 251.595 169.639Z" fill="#FFD0D4"/>
<path fill-rule="evenodd" clip-rule="evenodd" d="M59.8985 308.563H81.0146C81.4983 308.563 81.9368 308.284 82.1318 307.848C82.3255 307.413 82.2377 306.908 81.9088 306.559L61.604 285.088L59.8168 286.709L78.226 306.178H59.8985V308.563Z" fill="#250F8A"/>
<path fill-rule="evenodd" clip-rule="evenodd" d="M257.08 177.877C259.584 177.203 261.291 173.585 261.095 171.019C260.883 168.254 258.42 166.179 255.597 166.387C255.426 166.399 255.268 166.445 255.103 166.473C254.989 166.882 254.95 167.315 255.021 167.671C255.3 169.062 256.346 170.336 257.659 170.933C257.659 170.933 257.65 177.068 257.08 177.877Z" fill="#FA7564"/>
<path fill-rule="evenodd" clip-rule="evenodd" d="M258.35 171.495C258.776 171.493 259.192 171.654 259.533 171.903C260.633 172.704 259.962 174.396 258.83 174.803C258.465 174.936 258.069 174.969 257.679 174.952C257.342 174.938 256.988 174.878 256.728 174.668C256.477 174.464 256.348 174.141 256.329 173.821C256.312 173.503 256.396 173.186 256.51 172.886C256.77 172.204 257.581 171.499 258.35 171.495Z" fill="#FFD0D4"/>
<path fill-rule="evenodd" clip-rule="evenodd" d="M301.245 210.448L284.91 211.175L273.525 192.998L260.911 201.01L282.435 217.477L300.574 213.406L302.332 217.91L303.754 217.314L301.245 210.448Z" fill="#472BC7"/>
<path fill-rule="evenodd" clip-rule="evenodd" d="M265.378 168.602C265.378 170.249 264.015 171.584 262.332 171.584C260.65 171.584 259.287 170.249 259.287 168.602C259.287 166.956 260.65 165.62 262.332 165.62C264.015 165.62 265.378 166.956 265.378 168.602Z" fill="#FA7564"/>
<path fill-rule="evenodd" clip-rule="evenodd" d="M61.2468 315.833H80.2103V64.5216H61.2468V315.833ZM58.8103 318.219H82.6468V62.136H58.8103V318.219Z" fill="#250F8A"/>
<path fill-rule="evenodd" clip-rule="evenodd" d="M55.5466 326.968H85.9093V305.664H55.5466V326.968Z" fill="#472BC7"/>
<path fill-rule="evenodd" clip-rule="evenodd" d="M59.8985 220.395H81.0146C81.4983 220.395 81.9368 220.114 82.1318 219.679C82.3255 219.245 82.2377 218.739 81.9088 218.391L61.604 196.919L59.8168 198.539L78.226 218.009H59.8985V220.395Z" fill="#250F8A"/>
<path fill-rule="evenodd" clip-rule="evenodd" d="M59.8985 242.436H81.0146C81.4983 242.436 81.9368 242.156 82.1318 241.721C82.3255 241.286 82.2377 240.781 81.9088 240.432L61.604 218.961L59.8168 220.582L78.226 240.051H59.8985V242.436Z" fill="#250F8A"/>
<path fill-rule="evenodd" clip-rule="evenodd" d="M59.8985 264.479H81.0146C81.4983 264.479 81.9368 264.199 82.1318 263.763C82.3255 263.329 82.2377 262.823 81.9088 262.475L61.604 241.003L59.8168 242.625L78.226 262.093H59.8985V264.479Z" fill="#250F8A"/>
<path fill-rule="evenodd" clip-rule="evenodd" d="M59.8985 286.521H81.0146C81.4983 286.521 81.9368 286.241 82.1318 285.806C82.3255 285.371 82.2377 284.866 81.9088 284.517L61.604 263.046L59.8168 264.667L78.226 284.136H59.8985V286.521Z" fill="#250F8A"/>
<path fill-rule="evenodd" clip-rule="evenodd" d="M59.8985 198.881H81.0146C81.4983 198.881 81.9368 198.601 82.1318 198.166C82.3255 197.731 82.2377 197.225 81.9088 196.878L61.604 175.406L59.8168 177.026L78.226 196.495H59.8985V198.881Z" fill="#250F8A"/>
<path fill-rule="evenodd" clip-rule="evenodd" d="M59.8985 177.368H81.0146C81.4983 177.368 81.9368 177.087 82.1318 176.652C82.3255 176.218 82.2377 175.712 81.9088 175.365L61.604 153.892L59.8168 155.512L78.226 174.982H59.8985V177.368Z" fill="#250F8A"/>
<path fill-rule="evenodd" clip-rule="evenodd" d="M59.8985 155.855H81.0146C81.4983 155.855 81.9368 155.575 82.1318 155.139C82.3255 154.705 82.2377 154.199 81.9088 153.852L61.604 132.38L59.8168 134L78.226 153.469H59.8985V155.855Z" fill="#250F8A"/>
<path fill-rule="evenodd" clip-rule="evenodd" d="M59.8985 134.341H81.0146C81.4983 134.341 81.9368 134.061 82.1318 133.626C82.3255 133.191 82.2377 132.686 81.9088 132.339L61.604 110.866L59.8168 112.486L78.226 131.956H59.8985V134.341Z" fill="#250F8A"/>
<path fill-rule="evenodd" clip-rule="evenodd" d="M59.8985 112.828H81.0146C81.4983 112.828 81.9368 112.548 82.1318 112.113C82.3255 111.678 82.2377 111.173 81.9088 110.825L61.604 89.3528L59.8168 90.9728L78.226 110.442H59.8985V112.828Z" fill="#250F8A"/>
<path fill-rule="evenodd" clip-rule="evenodd" d="M59.8985 91.3151H81.0146C81.4983 91.3151 81.9368 91.0348 82.1318 90.5993C82.3255 90.1651 82.2377 89.6593 81.9088 89.3122L61.604 67.8396L59.8168 69.4596L78.226 88.9293H59.8985V91.3151Z" fill="#250F8A"/>
<path fill-rule="evenodd" clip-rule="evenodd" d="M59.8985 69.8019H81.0146C81.4983 69.8019 81.9368 69.5216 82.1318 69.0862C82.3255 68.6519 82.2377 68.1461 81.9088 67.799L61.604 46.3264L59.8168 47.9464L78.226 67.4161H59.8985V69.8019Z" fill="#0089C7"/>
<path fill-rule="evenodd" clip-rule="evenodd" d="M58.8505 70.23H97.4926V38.3301H58.8505V70.23Z" fill="#472BC7"/>
<path fill-rule="evenodd" clip-rule="evenodd" d="M0.780762 56.6534H39.4228V38.3301H0.780762V56.6534Z" fill="#472BC7"/>
<path fill-rule="evenodd" clip-rule="evenodd" d="M1.42182 40.6605H192.283C192.956 40.6605 193.502 40.1261 193.502 39.4676C193.502 38.8091 192.956 38.2747 192.283 38.2747H1.42182C0.749334 38.2747 0.203552 38.8091 0.203552 39.4676C0.203552 40.1261 0.749334 40.6605 1.42182 40.6605Z" fill="#250F8A"/>
<path fill-rule="evenodd" clip-rule="evenodd" d="M182.198 122.575H183.417V45.0354H182.198V122.575Z" fill="#472BC7"/>
<path fill-rule="evenodd" clip-rule="evenodd" d="M45.1913 332.534H96.2658V323.16H45.1913V332.534Z" fill="#250F8A"/>
<path fill-rule="evenodd" clip-rule="evenodd" d="M78.0296 40.3484C78.1855 40.3484 78.3415 40.2899 78.4609 40.1742L88.637 30.2085H181.939L191.506 39.5778C191.745 39.8104 192.13 39.8104 192.368 39.5778C192.606 39.3439 192.606 38.967 192.368 38.7332L182.443 29.0156H88.1327L77.5983 39.3296C77.3608 39.5634 77.3608 39.9404 77.5983 40.1742C77.7177 40.2899 77.8737 40.3484 78.0296 40.3484Z" fill="#250F8A"/>
<path fill-rule="evenodd" clip-rule="evenodd" d="M0.608673 40.3482C0.82796 40.3482 1.03994 40.2313 1.14836 40.0285L11.333 20.9776H36.0321L45.6089 39.4261C45.7611 39.7184 46.1291 39.8341 46.4275 39.6874C46.7272 39.5383 46.8478 39.1792 46.6956 38.8845L36.7789 19.7847H10.596L0.0702011 39.475C-0.0869548 39.7673 0.0287801 40.1276 0.327255 40.2803C0.417406 40.3268 0.513649 40.3482 0.608673 40.3482Z" fill="#250F8A"/>
<path fill-rule="evenodd" clip-rule="evenodd" d="M178.341 45.0351C178.341 47.4508 180.341 49.4095 182.808 49.4095C185.274 49.4095 187.274 47.4508 187.274 45.0351C187.274 42.6194 185.274 40.6606 182.808 40.6606C180.341 40.6606 178.341 42.6194 178.341 45.0351Z" fill="#472BC7"/>
<path fill-rule="evenodd" clip-rule="evenodd" d="M156.396 30.1999C156.657 30.1999 156.9 30.0341 156.979 29.7776C157.077 29.4627 156.896 29.1287 156.574 29.0332L66.3827 2.10421C66.245 2.06485 66.0976 2.07081 65.9673 2.12568L23.2208 19.7917C22.9102 19.9193 22.7652 20.2688 22.8956 20.573C23.0271 20.8772 23.3841 21.0192 23.6935 20.8903L66.2377 3.30906L156.219 30.1737C156.278 30.1915 156.338 30.1999 156.396 30.1999Z" fill="#250F8A"/>
<path fill-rule="evenodd" clip-rule="evenodd" d="M80.3943 40.428C80.538 40.428 80.6842 40.403 80.8268 40.3493C81.4566 40.1155 81.7721 39.4272 81.5334 38.8104L67.3308 2.21875C67.1396 1.7225 66.6389 1.40995 66.0931 1.45409C65.5522 1.49703 65.1051 1.88593 64.9979 2.40723L57.6566 38.0947C57.5238 38.74 57.9514 39.3699 58.6105 39.4999C59.2684 39.6264 59.9128 39.2113 60.0456 38.5659L66.5536 6.9296L79.2552 39.6586C79.4404 40.1346 79.9033 40.428 80.3943 40.428Z" fill="#250F8A"/>
<path fill-rule="evenodd" clip-rule="evenodd" d="M63.7377 2.64251C63.7377 3.97023 64.8365 5.04624 66.1925 5.04624C67.5484 5.04624 68.6473 3.97023 68.6473 2.64251C68.6473 1.31478 67.5484 0.23877 66.1925 0.23877C64.8365 0.23877 63.7377 1.31478 63.7377 2.64251Z" fill="#472BC7"/>
<path fill-rule="evenodd" clip-rule="evenodd" d="M169.238 40.4619C169.372 40.4619 169.507 40.419 169.621 40.3295L181.583 30.8613V39.714C181.583 40.0432 181.856 40.3104 182.192 40.3104C182.529 40.3104 182.801 40.0432 182.801 39.714V29.6123C182.801 29.3821 182.666 29.1733 182.455 29.0743C182.244 28.9741 181.992 29.0027 181.809 29.1483L168.854 39.4014C168.593 39.609 168.552 39.9848 168.764 40.2401C168.884 40.3868 169.06 40.4619 169.238 40.4619Z" fill="#250F8A"/>
<path fill-rule="evenodd" clip-rule="evenodd" d="M157.67 40.4619C157.804 40.4619 157.939 40.419 158.053 40.3295L170.016 30.8613V39.714C170.016 40.0432 170.288 40.3104 170.625 40.3104C170.961 40.3104 171.234 40.0432 171.234 39.714V29.6123C171.234 29.3821 171.099 29.1733 170.887 29.0743C170.677 28.9741 170.425 29.0027 170.241 29.1483L157.286 39.4014C157.024 39.609 156.984 39.9848 157.196 40.2401C157.316 40.3868 157.492 40.4619 157.67 40.4619Z" fill="#250F8A"/>
<path fill-rule="evenodd" clip-rule="evenodd" d="M146.102 40.4619C146.236 40.4619 146.371 40.419 146.484 40.3295L158.448 30.8613V39.714C158.448 40.0432 158.719 40.3104 159.057 40.3104C159.393 40.3104 159.666 40.0432 159.666 39.714V29.6123C159.666 29.3821 159.531 29.1733 159.319 29.0743C159.109 28.9741 158.857 29.0027 158.673 29.1483L145.718 39.4014C145.456 39.609 145.416 39.9848 145.628 40.2401C145.747 40.3868 145.924 40.4619 146.102 40.4619Z" fill="#250F8A"/>
<path fill-rule="evenodd" clip-rule="evenodd" d="M134.534 40.4619C134.668 40.4619 134.804 40.419 134.917 40.3295L146.879 30.8613V39.714C146.879 40.0432 147.152 40.3104 147.488 40.3104C147.826 40.3104 148.097 40.0432 148.097 39.714V29.6123C148.097 29.3821 147.962 29.1733 147.751 29.0743C147.541 28.9741 147.29 29.0027 147.106 29.1483L134.151 39.4014C133.889 39.609 133.848 39.9848 134.06 40.2401C134.18 40.3868 134.356 40.4619 134.534 40.4619Z" fill="#250F8A"/>
<path fill-rule="evenodd" clip-rule="evenodd" d="M122.966 40.4619C123.1 40.4619 123.235 40.419 123.349 40.3295L135.312 30.8613V39.714C135.312 40.0432 135.584 40.3104 135.921 40.3104C136.257 40.3104 136.53 40.0432 136.53 39.714V29.6123C136.53 29.3821 136.395 29.1733 136.183 29.0743C135.972 28.9741 135.721 29.0027 135.537 29.1483L122.582 39.4014C122.321 39.609 122.28 39.9848 122.492 40.2401C122.612 40.3868 122.788 40.4619 122.966 40.4619Z" fill="#250F8A"/>
<path fill-rule="evenodd" clip-rule="evenodd" d="M111.398 40.4619C111.532 40.4619 111.667 40.419 111.781 40.3295L123.744 30.8613V39.714C123.744 40.0432 124.016 40.3104 124.353 40.3104C124.689 40.3104 124.962 40.0432 124.962 39.714V29.6123C124.962 29.3821 124.827 29.1733 124.615 29.0743C124.405 28.9741 124.153 29.0027 123.969 29.1483L111.014 39.4014C110.752 39.609 110.712 39.9848 110.924 40.2401C111.044 40.3868 111.22 40.4619 111.398 40.4619Z" fill="#250F8A"/>
<path fill-rule="evenodd" clip-rule="evenodd" d="M99.8305 40.4619C99.9645 40.4619 100.1 40.419 100.213 40.3295L112.176 30.8613V39.714C112.176 40.0432 112.448 40.3104 112.786 40.3104C113.122 40.3104 113.395 40.0432 113.395 39.714V29.6123C113.395 29.3821 113.259 29.1733 113.047 29.0743C112.838 28.9741 112.586 29.0027 112.402 29.1483L99.4468 39.4014C99.1849 39.609 99.1447 39.9848 99.3566 40.2401C99.476 40.3868 99.6527 40.4619 99.8305 40.4619Z" fill="#250F8A"/>
<path fill-rule="evenodd" clip-rule="evenodd" d="M88.2623 40.4619C88.3963 40.4619 88.5315 40.419 88.6448 40.3295L100.608 30.8613V39.714C100.608 40.0432 100.88 40.3104 101.217 40.3104C101.554 40.3104 101.826 40.0432 101.826 39.714V29.6123C101.826 29.3821 101.691 29.1733 101.479 29.0743C101.268 28.9741 101.016 29.0027 100.834 29.1483L87.8785 39.4014C87.6166 39.609 87.5764 39.9848 87.7884 40.2401C87.9078 40.3868 88.0844 40.4619 88.2623 40.4619Z" fill="#250F8A"/>
<path fill-rule="evenodd" clip-rule="evenodd" d="M19.8754 40.4621C20.0484 40.4621 20.2202 40.3906 20.3408 40.251L35.8773 22.2963V39.7142C35.8773 40.0434 36.1502 40.3106 36.4865 40.3106C36.8239 40.3106 37.0956 40.0434 37.0956 39.7142V20.6704C37.0956 20.4199 36.936 20.1956 36.6972 20.1097C36.456 20.0226 36.188 20.093 36.0223 20.2839L19.4113 39.4804C19.1932 39.7309 19.2261 40.1078 19.4819 40.3202C19.5965 40.4156 19.7366 40.4621 19.8754 40.4621Z" fill="#250F8A"/>
<path fill-rule="evenodd" clip-rule="evenodd" d="M7.92602 40.4622C8.12338 40.4622 8.31708 40.368 8.43404 40.195L20.2731 22.6543V39.7142C20.2731 40.0435 20.5448 40.3107 20.8822 40.3107C21.2185 40.3107 21.4914 40.0435 21.4914 39.7142V20.6704C21.4914 20.4068 21.3147 20.1742 21.0577 20.099C20.797 20.0251 20.5216 20.1217 20.3742 20.3412L7.41801 39.5365C7.23283 39.812 7.3108 40.1819 7.591 40.3632C7.69455 40.43 7.81029 40.4622 7.92602 40.4622Z" fill="#250F8A"/>
<path fill-rule="evenodd" clip-rule="evenodd" d="M178.972 124.166C178.972 126.24 180.69 127.921 182.807 127.921C184.925 127.921 186.643 126.24 186.643 124.166C186.643 122.091 184.925 120.411 182.807 120.411C180.69 120.411 178.972 122.091 178.972 124.166Z" fill="#472BC7"/>
<path fill-rule="evenodd" clip-rule="evenodd" d="M495.474 219.486L494.496 206.261L496.006 196.527L501.136 167.842L498.658 167.495L492.996 192.797L484.146 193.49L474.942 167.842L472.464 168.188L479.191 195.57L481.55 206.037L481.274 218.793L495.474 219.486Z" fill="white"/>
<path fill-rule="evenodd" clip-rule="evenodd" d="M483.101 186.196C483.101 188.676 485.153 192.105 487.686 192.105C490.219 192.105 492.271 188.676 492.271 186.196C492.271 183.716 490.219 181.706 487.686 181.706C485.153 181.706 483.101 183.716 483.101 186.196Z" fill="#FFD0D4"/>
<path fill-rule="evenodd" clip-rule="evenodd" d="M489.617 186.809C489.873 186.495 490.28 186.274 490.687 186.329C490.78 186.342 490.873 186.37 490.956 186.415C491.18 186.54 491.305 186.79 491.352 187.038C491.478 187.723 491.074 188.436 490.473 188.81C490.303 188.917 490.115 189 489.914 189.024C489.713 189.047 489.5 189.004 489.344 188.877C488.771 188.412 489.249 187.26 489.617 186.809Z" fill="#FFD0D4"/>
<path fill-rule="evenodd" clip-rule="evenodd" d="M489.613 186.559C489.717 186.608 489.837 186.655 489.943 186.613C490.051 186.572 490.107 186.46 490.177 186.371C490.453 186.019 491.057 186.019 491.377 186.331C491.699 186.644 491.731 187.177 491.509 187.563C491.286 187.949 490.851 188.19 490.403 188.254C490.108 189.284 489.987 190.36 490.045 191.428C490.774 191.48 491.504 191.533 492.233 191.585C492.375 191.596 492.531 191.602 492.643 191.517C492.748 191.436 492.786 191.299 492.814 191.171C493.087 189.947 493.222 188.693 493.219 187.44C493.217 186.218 493.068 184.952 492.425 183.906C491.654 182.655 488.492 180.595 486.949 181.749C485.251 183.022 488.436 186.006 489.613 186.559Z" fill="black"/>
<path fill-rule="evenodd" clip-rule="evenodd" d="M485.745 184.73C485.052 185.757 484.053 186.638 482.836 186.95C482.485 185.618 482.79 184.136 483.64 183.042C484.119 182.426 485.849 180.923 486.77 181.276C487.723 181.642 486.215 184.034 485.745 184.73Z" fill="black"/>
<path fill-rule="evenodd" clip-rule="evenodd" d="M494.956 210.105L481.419 209.485L471.004 255.161L466.172 252.28L472.054 259.275L485.922 221.627L485.711 238.702L495.113 250.901L495.714 255.304L495.963 257.176L497.639 256.981L497.943 250.271L490.666 238.682L495.801 219.498L494.956 210.105Z" fill="#250F8A"/>
<path fill-rule="evenodd" clip-rule="evenodd" d="M495.812 180.217L498.743 181.224L501.137 167.842L498.659 167.494L495.812 180.217Z" fill="#FFD0D4"/>
<path fill-rule="evenodd" clip-rule="evenodd" d="M478.743 178.432L475.307 179.76L472.465 168.188L474.943 167.841L478.743 178.432Z" fill="#FFD0D4"/>
<path fill-rule="evenodd" clip-rule="evenodd" d="M490.227 193.014L487.686 197.432L486.407 193.313L490.227 193.014Z" fill="#FFD0D4"/>
<path fill-rule="evenodd" clip-rule="evenodd" d="M471.356 166.455C471.356 167.604 472.307 168.534 473.481 168.534C474.654 168.534 475.604 167.604 475.604 166.455C475.604 165.306 474.654 164.376 473.481 164.376C472.307 164.376 471.356 165.306 471.356 166.455Z" fill="#FFD0D4"/>
<path fill-rule="evenodd" clip-rule="evenodd" d="M498.019 166.844C498.019 167.992 498.969 168.923 500.142 168.923C501.315 168.923 502.266 167.992 502.266 166.844C502.266 165.695 501.315 164.764 500.142 164.764C498.969 164.764 498.019 165.695 498.019 166.844Z" fill="#FFD0D4"/>
<path fill-rule="evenodd" clip-rule="evenodd" d="M342.002 80.5786H277.999C275.799 80.5786 274 78.7907 274 76.6056V73.7938C274 71.6087 275.799 69.8208 277.999 69.8208H342.002C344.202 69.8208 346 71.6087 346 73.7938V76.6056C346 78.7907 344.202 80.5786 342.002 80.5786Z" fill="white"/>
<path fill-rule="evenodd" clip-rule="evenodd" d="M17.3818 386.276L17.3331 389.855L163.512 391.759L195.179 376.069L195.227 372.49L17.3818 386.276Z" fill="#FFCA00"/>
<path fill-rule="evenodd" clip-rule="evenodd" d="M163.512 391.759L17.3327 389.855L49.0002 374.167L195.18 376.07L163.512 391.759Z" fill="#FFCA00"/>
<path fill-rule="evenodd" clip-rule="evenodd" d="M163.56 388.179L17.3822 386.276L49.0485 370.587L195.228 372.491L163.56 388.179Z" fill="white"/>
<path fill-rule="evenodd" clip-rule="evenodd" d="M129.607 374.394L49.2858 373.347L51.6809 372.16L132.001 373.207L129.607 374.394Z" fill="#FA7564"/>
<path fill-rule="evenodd" clip-rule="evenodd" d="M123.621 377.358L43.2993 376.313L45.6944 375.126L126.016 376.172L123.621 377.358Z" fill="#FA7564"/>
<path fill-rule="evenodd" clip-rule="evenodd" d="M117.874 380.205L37.5524 379.16L39.9475 377.973L120.269 379.02L117.874 380.205Z" fill="#FA7564"/>
<path fill-rule="evenodd" clip-rule="evenodd" d="M112.366 382.935L32.0452 381.889L34.4403 380.702L114.762 381.748L112.366 382.935Z" fill="#FA7564"/>
<path fill-rule="evenodd" clip-rule="evenodd" d="M163.452 385.912L111.502 385.237L135.685 373.254L187.637 373.931L163.452 385.912Z" fill="#FA7564"/>
<path fill-rule="evenodd" clip-rule="evenodd" d="M42.2295 421.235L42.1808 424.814L188.359 426.718L220.026 411.029L220.075 407.45L42.2295 421.235Z" fill="#2D109F"/>
<path fill-rule="evenodd" clip-rule="evenodd" d="M188.359 426.718L42.181 424.814L73.8473 409.125L220.027 411.029L188.359 426.718Z" fill="#2D109F"/>
<path fill-rule="evenodd" clip-rule="evenodd" d="M188.408 423.138L42.2299 421.234L73.8962 405.546L220.076 407.45L188.408 423.138Z" fill="white"/>
<path fill-rule="evenodd" clip-rule="evenodd" d="M154.455 409.352L74.1335 408.307L76.5274 407.12L156.849 408.166L154.455 409.352Z" fill="#FA7564"/>
<path fill-rule="evenodd" clip-rule="evenodd" d="M148.468 412.317L68.147 411.272L70.5421 410.085L150.862 411.132L148.468 412.317Z" fill="#FA7564"/>
<path fill-rule="evenodd" clip-rule="evenodd" d="M142.721 415.165L62.4 414.12L64.7951 412.933L145.116 413.979L142.721 415.165Z" fill="#FA7564"/>
<path fill-rule="evenodd" clip-rule="evenodd" d="M137.214 417.894L56.8929 416.848L59.288 415.661L139.608 416.707L137.214 417.894Z" fill="#FA7564"/>
<path fill-rule="evenodd" clip-rule="evenodd" d="M188.3 420.871L136.348 420.196L160.533 408.213L212.485 408.89L188.3 420.871Z" fill="#FA7564"/>
<path fill-rule="evenodd" clip-rule="evenodd" d="M271.877 109.155H363.247V99.6116H271.877V109.155Z" fill="#E5FDFD"/>
<path fill-rule="evenodd" clip-rule="evenodd" d="M271.877 157.603H363.247V117.506H271.877V157.603Z" fill="#E5FDFD"/>
<path fill-rule="evenodd" clip-rule="evenodd" d="M251.415 368.588L255.619 375.029L259.708 387.373L272.092 406.856L270.199 407.362L255.449 391.211L248.249 377.579L251.415 368.588Z" fill="#E7F8FC"/>
<path fill-rule="evenodd" clip-rule="evenodd" d="M225.928 377.287L210.181 402.991L212.227 403.706L231.241 379.934L225.928 377.287Z" fill="#2D109F"/>
<path fill-rule="evenodd" clip-rule="evenodd" d="M219.126 371.914C221.879 372.368 225.318 375.24 224.866 378.006C224.413 380.774 220.24 382.388 217.487 381.933C214.734 381.478 212.869 378.866 213.322 376.1C213.774 373.333 216.373 371.459 219.126 371.914Z" fill="#FFD0D4"/>
<path fill-rule="evenodd" clip-rule="evenodd" d="M215.572 380.725C215.377 381.234 215.208 381.755 215.068 382.282C214.969 382.66 214.988 383.213 215.373 383.271C215.564 383.3 215.74 383.173 215.892 383.055C216.402 382.657 216.934 382.226 217.162 381.62C217.353 381.107 217.293 380.508 217.003 380.046C216.741 379.63 216.284 379.271 215.805 379.344C215.833 379.824 215.746 380.274 215.572 380.725Z" fill="#FFD0D4"/>
<path fill-rule="evenodd" clip-rule="evenodd" d="M224.899 377.408C224.821 374.839 221.68 372.335 219.126 371.913C216.373 371.459 213.774 373.333 213.322 376.099C213.295 376.267 213.302 376.428 213.291 376.595C213.664 376.802 214.078 376.942 214.444 376.959C215.87 377.022 217.357 376.319 218.245 375.198C218.245 375.198 224.241 376.667 224.899 377.408Z" fill="black"/>
<path fill-rule="evenodd" clip-rule="evenodd" d="M218.955 374.666C219.051 374.256 219.305 373.894 219.628 373.626C220.666 372.759 222.165 373.807 222.301 374.993C222.345 375.376 222.286 375.766 222.179 376.136C222.086 376.456 221.947 376.782 221.68 376.983C221.423 377.177 221.077 377.224 220.761 377.165C220.444 377.106 220.154 376.95 219.887 376.769C219.28 376.356 218.78 375.408 218.955 374.666Z" fill="#FFD0D4"/>
<path fill-rule="evenodd" clip-rule="evenodd" d="M224.354 390.901L214.691 407.769L216.895 407.939L229.271 395.332L230.966 379.145C230.966 379.145 230.966 374.203 228.762 374.544C226.558 374.885 225.541 377.611 225.541 377.611L224.354 390.901Z" fill="#1E0880"/>
<path fill-rule="evenodd" clip-rule="evenodd" d="M224.622 374.703C234.604 369.738 245.968 368.192 245.968 368.192L251.408 378.881L226.897 382.893L224.622 374.703Z" fill="#1E0880"/>
<path fill-rule="evenodd" clip-rule="evenodd" d="M245.968 368.191L247.491 368.138C251.6 367.996 255.006 371.309 255 375.442L246.899 390.17L248.375 411.348H246.171L241.362 391.351L245.968 368.191Z" fill="white"/>
<path fill-rule="evenodd" clip-rule="evenodd" d="M212.862 405.537C212.862 406.974 211.756 408.139 210.39 408.139C209.026 408.139 207.918 406.974 207.918 405.537C207.918 404.101 209.026 402.934 210.39 402.934C211.756 402.934 212.862 404.101 212.862 405.537Z" fill="#FFD0D4"/>
<path fill-rule="evenodd" clip-rule="evenodd" d="M218.481 408.143C218.481 409.579 217.375 410.745 216.009 410.745C214.645 410.745 213.537 409.579 213.537 408.143C213.537 406.705 214.645 405.54 216.009 405.54C217.375 405.54 218.481 406.705 218.481 408.143Z" fill="#FFD0D4"/>
<path fill-rule="evenodd" clip-rule="evenodd" d="M248.376 411.348L248.781 413.451L238.19 413.687C238.19 413.687 238.778 412.15 239.132 412.269C239.485 412.386 246.171 411.348 246.171 411.348H248.376Z" fill="#250F8A"/>
<path fill-rule="evenodd" clip-rule="evenodd" d="M271.014 407.505L272.054 409.859L262.495 410.098L262.73 408.916L269.149 408.016L271.014 407.505Z" fill="#250F8A"/>
</svg>
